<?xml version="1.0" encoding="UTF-8"?>
<svg id="Layer_2" xmlns="http://www.w3.org/2000/svg" viewBox="0 0 10.78 10.78">
  <g id="Layer_1-2" data-name="Layer_1">
    <path d="M5.39,0C2.42,0,0,2.42,0,5.39s2.42,5.39,5.39,5.39,5.39-2.42,5.39-5.39S8.37,0,5.39,0ZM5.39,1.62c.89,0,1.62.72,1.62,1.62s-.72,1.62-1.62,1.62-1.62-.72-1.62-1.62.72-1.62,1.62-1.62ZM5.39,9.27c-1.35,0-2.54-.69-3.23-1.74.02-1.07,2.16-1.66,3.23-1.66s3.22.59,3.23,1.66c-.7,1.05-1.89,1.74-3.23,1.74Z" style="fill: #a4b7d5;"/>
  </g>
</svg>