<?xml version="1.0" encoding="UTF-8"?>
<svg id="Layer_2" xmlns="http://www.w3.org/2000/svg" viewBox="0 0 10.11 11.37">
  <g id="Layer_1-2" data-name="Layer_1">
    <g>
      <g>
        <rect x=".5" y=".5" width="9.11" height="10.37" rx=".5" ry=".5" style="fill: #fff;"/>
        <path d="M9.11,1v9.37H1V1h8.11M9.11,0H1C.45,0,0,.45,0,1v9.37c0,.55.45,1,1,1h8.11c.55,0,1-.45,1-1V1c0-.55-.45-1-1-1h0Z"/>
      </g>
      <path d="M7.11,3v5.37H3V3h4.11M9.11,0H1C.45,0,0,.45,0,1v9.37c0,.55.45,1,1,1h8.11c.55,0,1-.45,1-1V1c0-.55-.45-1-1-1h0Z" style="fill: #999;"/>
      <ellipse cx="5.05" cy="10.61" rx=".42" ry=".38" style="fill: #192030;"/>
      <rect x=".84" y="1.9" width="8.42" height="7.58" style="fill: #192030;"/>
      <path d="M3.47,8.36v-2.6c-.27-.07-.49-.2-.68-.4-.18-.2-.27-.43-.27-.7v-1.99h.63v1.99h.32v-1.99h.63v1.99h.32v-1.99h.63v1.99c0,.27-.09.5-.27.7-.18.2-.41.33-.68.4v2.6h-.63ZM6.63,8.36v-2.27h-.95v-1.99c0-.39.15-.73.46-1.01.31-.28.68-.42,1.12-.42v5.69h-.63Z" style="fill: #b3b3b3;"/>
    </g>
  </g>
</svg>